<?xml version="1.0" encoding="UTF-8"?>
<!-- Generator: Adobe Illustrator 28.1.0, SVG Export Plug-In . SVG Version: 6.00 Build 0)  -->
<svg xmlns="http://www.w3.org/2000/svg" xmlns:xlink="http://www.w3.org/1999/xlink" version="1.1" id="Layer_1" x="0px" y="0px" viewBox="0 0 135.3 35" style="enable-background:new 0 0 135.3 35;" xml:space="preserve">
<style type="text/css">
	.st0{fill:#1D4077;}
	.st1{fill:#DF2128;}
	.st2{fill-rule:evenodd;clip-rule:evenodd;fill:#1D4077;}
	.st3{fill-rule:evenodd;clip-rule:evenodd;fill:#EA242F;}
</style>
<g>
	<g>
		<path class="st0" d="M27.1,20.8c0.9-3.1-3.1-8.4-12.4-4.9c-7.5,2.9-8.9,8.4-8.1,12.3c0.5,2.3,2.3,4.1,3.6,4.3c0,0-0.7-0.4-1.3-1.7    c-1.1-2.4-0.3-5.4,2.2-6.5c2.3-1,3.8-0.7,6-0.6C21.6,23.8,26,24.6,27.1,20.8z"></path>
		<path class="st1" d="M31.6,19.9c0.6-9.3-7.1-17.6-17.2-17.4c-9.5,0.2-17.7,9.9-13,14.6c1.7,1.7,3.9,1.3,5.8,0.3    c3.2-1.7,6.6-5.6,13.2-5.5c9.1,0.1,9.7,7,9.7,8c0,1-0.1,6.8-9.1,7.1c-4.1,0.1-7.3-1.3-7.8,1.5c-0.6,3.5,7.8,5.4,13.6,0.8    C31.4,25.6,31.5,20.5,31.6,19.9z"></path>
	</g>
	<g>
		<g>
			<path class="st2" d="M46.7,17c-0.3-0.2-0.6-0.4-0.8-0.6c-0.6-0.5-1.3-0.9-2-1.2c-0.7-0.3-1.5-0.5-2.3-0.4c-0.8,0-1.5,0.2-2.2,0.4     c-0.7,0.3-1.3,0.7-1.9,1.2c-0.5,0.5-1,1.1-1.3,1.8c-0.3,0.7-0.5,1.4-0.5,2.2c0,0.8,0.1,1.5,0.4,2.3c0.3,0.7,0.6,1.3,1.1,1.9     c0.5,0.5,1.1,1,1.8,1.3c0.7,0.3,1.5,0.5,2.2,0.4c1,0.1,2.1-0.1,3-0.5c0.9-0.5,1.7-1.1,2.4-1.9L46.7,17z M44.4,13.2     c1,0.5,2,1,2.9,1.7c0.1,0,0.1,0.1,0.2,0.1c0.3,0.2,0.6,0.4,0.9,0.5c0.3,0.1,0.6,0.1,0.9,0.1c-0.2,0.2-0.4,0.4-0.5,0.7     c-0.1,0.5-0.1,1-0.1,1.5v9.1c0,0.4,0.2,0.8,0.6,0.9h-2.6v-1.6l-0.1-0.1c-0.5,0.8-1.2,1.4-2,1.7c-0.9,0.3-1.9,0.5-2.9,0.5     c-1,0-2.1-0.2-3-0.6c-1-0.4-1.8-0.9-2.6-1.6c-1.5-1.4-2.4-3.4-2.4-5.5c0-1.1,0.2-2.1,0.6-3.1c0.4-0.9,1-1.8,1.7-2.5     c0.7-0.7,1.6-1.3,2.5-1.7c1-0.4,2-0.6,3.1-0.6C42.5,12.6,43.5,12.8,44.4,13.2"></path>
			<path class="st2" d="M52.1,16.7c0-0.3-0.1-0.5-0.2-0.7c0,0,0-0.1-0.1-0.1c0.5-0.2,1-0.4,1.5-0.7c0.4-0.3,0.9-0.6,1.3-1     c0.5-0.5,1.1-0.9,1.7-1.2c0.7-0.3,1.5-0.4,2.3-0.4c0.8,0,1.7,0.2,2.4,0.5c0.8,0.3,1.5,0.8,2.1,1.4c0.6,0.6,1.1,1.3,1.4,2.1     c0.3,0.8,0.5,1.6,0.5,2.4v6.7c0,0.4,0,0.8,0.2,1.2c0.1,0.2,0.3,0.4,0.5,0.6h-3.3c0.2-0.1,0.4-0.3,0.5-0.6     c0.1-0.3,0.1-0.7,0.1-1.1v-6.5c0-1.2-0.4-2.4-1.3-3.3c-0.9-0.9-2.1-1.4-3.3-1.3c-0.7,0-1.5,0.2-2.1,0.5c-0.6,0.4-1.1,0.9-1.6,1.4     c-0.1,0.2-0.3,0.3-0.5,0.4v9.4c0,0.2,0.1,0.4,0.2,0.5c0.1,0.2,0.3,0.3,0.5,0.4l0.1,0.1h-3.3c0.2-0.1,0.3-0.3,0.4-0.5     c0.1-0.3,0.1-0.6,0.1-0.9L52.1,16.7L52.1,16.7z"></path>
			<path class="st2" d="M70.7,24c0.3,0.2,0.6,0.4,0.8,0.6c0.6,0.5,1.3,0.9,2,1.2c0.7,0.3,1.5,0.5,2.3,0.5c1.5,0,3-0.6,4-1.7     c0.5-0.5,1-1.1,1.3-1.8c0.3-0.7,0.5-1.4,0.5-2.2c0-0.8-0.1-1.5-0.4-2.3c-0.3-0.7-0.6-1.3-1.1-1.9c-0.5-0.5-1.1-1-1.8-1.3     c-0.7-0.3-1.5-0.5-2.2-0.4c-1-0.1-2.1,0.1-3,0.5c-0.9,0.5-1.7,1.1-2.4,1.9L70.7,24z M68.7,7.4c0-0.4-0.2-0.8-0.6-1h2.6v8.3     l0.1,0.1c0.5-0.8,1.2-1.4,2-1.7c0.9-0.3,1.9-0.5,2.9-0.5c2.1,0,4.1,0.8,5.6,2.2c1.5,1.4,2.4,3.4,2.4,5.6c0,1.1-0.2,2.1-0.6,3.1     c-0.4,0.9-1,1.8-1.7,2.6c-0.7,0.7-1.6,1.3-2.5,1.7c-1,0.4-2,0.6-3.1,0.6c-0.8,0-1.6-0.1-2.3-0.4c-0.8-0.3-1.6-0.8-2.3-1.3     c-0.6-0.4-1-0.6-1.3-0.8c-0.5-0.4-1.1-0.7-1.7-0.8c0.2-0.2,0.3-0.4,0.3-0.7c0-0.3,0.1-0.8,0.1-1.3L68.7,7.4L68.7,7.4z"></path>
			<path class="st2" d="M86.8,27.5c0.2-0.1,0.4-0.4,0.4-0.6c0.1-0.5,0.1-1,0.1-1.4V7.8c0-0.3,0-0.6-0.1-0.8     c-0.1-0.2-0.2-0.4-0.4-0.5h2.6v19.9c-0.1,0.5,0.1,0.9,0.5,1.2L86.8,27.5L86.8,27.5z"></path>
			<path class="st2" d="M95.6,8.4C95.9,8.6,96,9,96,9.3c0,0.7-0.6,1.3-1.3,1.3c-0.4,0-0.7-0.1-1-0.4c-0.3-0.2-0.4-0.6-0.4-1     c0-0.7,0.6-1.3,1.3-1.4c0,0,0,0,0,0C95,8,95.3,8.1,95.6,8.4L95.6,8.4z M93.1,27.5c0.2-0.1,0.4-0.4,0.4-0.6c0.1-0.5,0.1-1,0.1-1.5     V14.3c0-0.3,0-0.6-0.1-0.8c-0.1-0.2-0.2-0.4-0.4-0.5h2.6v13.4c-0.1,0.5,0.1,0.9,0.5,1.2H93.1z"></path>
			<path class="st2" d="M110.3,16.3c-0.5-0.5-1.1-0.9-1.8-1.2c-0.6-0.2-1.3-0.4-2-0.3c-0.8,0-1.6,0.2-2.4,0.5     c-0.7,0.3-1.3,0.8-1.8,1.4c-0.5,0.6-0.9,1.2-1.1,1.9c-0.3,0.7-0.4,1.4-0.4,2.1c0,2.3,1.4,4.4,3.5,5.3c0.7,0.3,1.5,0.4,2.3,0.4     c1.4,0,2.8-0.6,3.8-1.7v3.5l-0.2-0.1c-0.1-0.1-0.2-0.1-0.3-0.2c-0.1,0-0.1-0.1-0.2-0.1c0,0-0.1,0-0.3,0.1     c-0.5,0.1-1.1,0.2-1.7,0.3c-0.6,0.1-1.1,0.2-1.7,0.2c-0.9,0-1.8-0.2-2.7-0.6c-3.9-1.7-5.7-6.2-4.1-10.2c0.4-0.9,0.9-1.8,1.6-2.5     c0.7-0.7,1.5-1.3,2.4-1.7c0.9-0.4,1.9-0.6,2.9-0.6c0.4,0,0.8,0,1.2,0.1c0.4,0.1,0.9,0.2,1.4,0.3c0.3,0.1,0.5,0.1,0.8,0.2     c0.1,0,0.2-0.1,0.3-0.1c0.1-0.1,0.2-0.2,0.3-0.3l0.1-0.1L110.3,16.3L110.3,16.3z"></path>
			<path class="st2" d="M125.2,13L125.2,13c-0.7,0.4-1.3,0.9-1.9,1.4l-4.3,4.1c0.9,0.1,1.7,0.3,2.5,0.8c0.7,0.5,1.3,1.1,1.7,1.8     c0.4,0.8,0.8,1.6,0.9,2.4c0.2,0.9,0.3,1.8,0.3,2.7c-0.1,0.5,0.2,1,0.6,1.2h-3.2c0.4-0.3,0.6-0.7,0.5-1.2c0-2.3-0.5-3.9-1.6-5     c-1-1.1-2.7-1.6-4.9-1.6h-0.6l5.8-5.9c0.1-0.1,0.2-0.2,0.2-0.4c0-0.2-0.1-0.3-0.3-0.4v0L125.2,13z M111.9,27.5     c0.2-0.1,0.4-0.4,0.4-0.6c0.1-0.5,0.1-1,0.1-1.4V7.8c0-0.3,0-0.6-0.1-0.8c-0.1-0.2-0.2-0.4-0.4-0.5h2.6v19.9     c-0.1,0.5,0.1,0.9,0.5,1.2L111.9,27.5L111.9,27.5z"></path>
			<path class="st2" d="M134,15.8c-0.4-0.3-0.8-0.6-1.2-0.8c-0.4-0.2-0.9-0.3-1.3-0.3c-0.6,0-1.1,0.1-1.6,0.4     c-0.4,0.4-0.7,0.9-0.6,1.4c0,0.6,0.2,1.1,0.6,1.5c0.6,0.4,1.2,0.8,1.9,1.1c0.6,0.3,1.1,0.5,1.4,0.7c0.4,0.2,0.7,0.5,1,0.8     c0.4,0.4,0.6,0.8,0.8,1.3c0.2,0.6,0.3,1.2,0.3,1.9c0,1.2-0.4,2.4-1.3,3.2c-0.8,0.8-1.9,1.3-3.1,1.3c-0.8,0-1.6-0.1-2.4-0.3     c-0.2,0-0.4-0.1-0.6-0.2c-0.2-0.1-0.4-0.1-0.7-0.2c-0.1,0-0.2,0-0.3,0.1c-0.1,0.1-0.2,0.2-0.3,0.3h0v-3.6c0.5,0.5,1,1,1.7,1.3     c0.6,0.3,1.3,0.5,2,0.5c0.7,0,1.5-0.2,2.1-0.5c0.6-0.4,0.9-1,0.8-1.7c0.1-0.7-0.2-1.4-0.7-2c-0.6-0.5-1.3-0.9-2.1-1.2     c-0.5-0.2-1-0.4-1.3-0.6c-0.4-0.2-0.7-0.5-1-0.7c-0.3-0.3-0.6-0.7-0.7-1.2c-0.2-0.5-0.3-1.1-0.3-1.7c-0.1-1.1,0.4-2.1,1.1-2.9     c0.8-0.7,1.8-1.1,2.9-1.1c0.5,0,0.9,0.1,1.4,0.2c0.3,0.1,0.5,0.1,0.8,0.1c0.2,0,0.5-0.1,0.6-0.2L134,15.8L134,15.8z"></path>
			<g>
				<path class="st3" d="M96.2,9.6c0,0.9-0.7,1.6-1.6,1.6c-0.9,0-1.6-0.7-1.6-1.6c0-0.9,0.7-1.6,1.6-1.6C95.5,8,96.2,8.7,96.2,9.6z"></path>
			</g>
		</g>
	</g>
</g>
</svg>
